<mxfile host="app.diagrams.net" modified="2023-11-19T04:19:36.993Z" agent="Mozilla/5.0 (X11; Ubuntu; Linux x86_64; rv:109.0) Gecko/20100101 Firefox/119.0" etag="mQKRgi5Y4jmeKFj7gL5N" version="22.1.3" type="github">
  <diagram name="Page-1" id="mCePCZnFi5WlXtyXA6uV">
    <mxGraphModel dx="1547" dy="1036" grid="0" gridSize="10" guides="1" tooltips="1" connect="1" arrows="1" fold="1" page="0" pageScale="1" pageWidth="850" pageHeight="1100" background="#000000" math="0" shadow="0">
      <root>
        <mxCell id="0" />
        <mxCell id="1" parent="0" />
        <mxCell id="axis1OOnoMo-Ix2kMcnb-1" value="Text" style="text;html=1;align=center;verticalAlign=middle;resizable=0;points=[];autosize=1;strokeColor=none;fillColor=none;" vertex="1" parent="1">
          <mxGeometry x="575" y="278" width="50" height="30" as="geometry" />
        </mxCell>
        <mxCell id="axis1OOnoMo-Ix2kMcnb-3" value="" style="rounded=0;whiteSpace=wrap;html=1;fillColor=#000000;strokeColor=#00CC00;movable=1;resizable=1;rotatable=1;deletable=1;editable=1;locked=0;connectable=1;" vertex="1" parent="1">
          <mxGeometry x="-130" y="90" width="959" height="510" as="geometry" />
        </mxCell>
        <mxCell id="axis1OOnoMo-Ix2kMcnb-4" value="Azure Cloud" style="verticalLabelPosition=bottom;html=1;verticalAlign=top;align=center;strokeColor=none;fillColor=#00BEF2;shape=mxgraph.azure.azure_subscription;fontColor=#FFFFFF;labelBackgroundColor=#000000;labelBorderColor=default;" vertex="1" parent="1">
          <mxGeometry x="-150" y="10" width="80" height="50" as="geometry" />
        </mxCell>
        <mxCell id="axis1OOnoMo-Ix2kMcnb-5" value="Virtual Networks" style="image;aspect=fixed;html=1;points=[];align=center;fontSize=12;image=img/lib/azure2/networking/Virtual_Networks.svg;fontColor=#FFFFFF;labelBackgroundColor=#000000;" vertex="1" parent="1">
          <mxGeometry x="-114" y="108" width="67" height="40" as="geometry" />
        </mxCell>
        <mxCell id="axis1OOnoMo-Ix2kMcnb-8" value="" style="endArrow=none;dashed=1;html=1;dashPattern=1 3;strokeWidth=2;rounded=0;exitX=0.26;exitY=0.137;exitDx=0;exitDy=0;exitPerimeter=0;" edge="1" parent="1" source="axis1OOnoMo-Ix2kMcnb-3" target="axis1OOnoMo-Ix2kMcnb-3">
          <mxGeometry width="50" height="50" relative="1" as="geometry">
            <mxPoint x="400" y="330" as="sourcePoint" />
            <mxPoint x="450" y="280" as="targetPoint" />
          </mxGeometry>
        </mxCell>
        <mxCell id="axis1OOnoMo-Ix2kMcnb-9" value="" style="endArrow=none;dashed=1;html=1;rounded=0;" edge="1" parent="1">
          <mxGeometry width="50" height="50" relative="1" as="geometry">
            <mxPoint x="400" y="330" as="sourcePoint" />
            <mxPoint x="450" y="280" as="targetPoint" />
          </mxGeometry>
        </mxCell>
        <mxCell id="axis1OOnoMo-Ix2kMcnb-10" value="" style="endArrow=none;dashed=1;html=1;rounded=0;" edge="1" parent="1">
          <mxGeometry width="50" height="50" relative="1" as="geometry">
            <mxPoint x="400" y="330" as="sourcePoint" />
            <mxPoint x="450" y="280" as="targetPoint" />
          </mxGeometry>
        </mxCell>
        <mxCell id="axis1OOnoMo-Ix2kMcnb-13" value="" style="shape=link;html=1;rounded=0;strokeColor=#007FFF;strokeWidth=3;" edge="1" parent="1">
          <mxGeometry width="100" relative="1" as="geometry">
            <mxPoint x="-160" as="sourcePoint" />
            <mxPoint x="-160" y="630" as="targetPoint" />
          </mxGeometry>
        </mxCell>
        <mxCell id="axis1OOnoMo-Ix2kMcnb-14" value="" style="endArrow=none;html=1;rounded=0;" edge="1" parent="1">
          <mxGeometry width="50" height="50" relative="1" as="geometry">
            <mxPoint x="380" y="340" as="sourcePoint" />
            <mxPoint x="430" y="290" as="targetPoint" />
          </mxGeometry>
        </mxCell>
        <mxCell id="axis1OOnoMo-Ix2kMcnb-17" value="" style="shape=link;html=1;rounded=0;strokeColor=#007FFF;strokeWidth=3;" edge="1" parent="1">
          <mxGeometry width="100" relative="1" as="geometry">
            <mxPoint x="960" as="sourcePoint" />
            <mxPoint x="960" y="630" as="targetPoint" />
          </mxGeometry>
        </mxCell>
        <mxCell id="axis1OOnoMo-Ix2kMcnb-18" value="" style="shape=link;html=1;rounded=0;strokeColor=#007FFF;strokeWidth=3;" edge="1" parent="1">
          <mxGeometry width="100" relative="1" as="geometry">
            <mxPoint x="960" as="sourcePoint" />
            <mxPoint x="-160" as="targetPoint" />
          </mxGeometry>
        </mxCell>
        <mxCell id="axis1OOnoMo-Ix2kMcnb-20" value="" style="shape=link;html=1;rounded=0;strokeColor=#007FFF;strokeWidth=3;" edge="1" parent="1">
          <mxGeometry width="100" relative="1" as="geometry">
            <mxPoint x="960" y="630" as="sourcePoint" />
            <mxPoint x="-160" y="630" as="targetPoint" />
            <Array as="points">
              <mxPoint x="410" y="630" />
            </Array>
          </mxGeometry>
        </mxCell>
        <mxCell id="axis1OOnoMo-Ix2kMcnb-21" value="Availability Zone 1" style="rounded=0;whiteSpace=wrap;html=1;dashed=1;strokeColor=#99CCFF;fillColor=#000000;direction=south;fontColor=#99CCFF;labelBackgroundColor=#000000;align=left;verticalAlign=top;" vertex="1" parent="1">
          <mxGeometry x="-27" y="112" width="346" height="466" as="geometry" />
        </mxCell>
        <mxCell id="axis1OOnoMo-Ix2kMcnb-22" value="Availability Zone 2" style="rounded=0;whiteSpace=wrap;html=1;dashed=1;strokeColor=#99CCFF;fillColor=#000000;direction=south;verticalAlign=top;align=left;fontColor=#99CCFF;labelBackgroundColor=#000000;" vertex="1" parent="1">
          <mxGeometry x="413" y="112" width="374" height="466" as="geometry" />
        </mxCell>
        <mxCell id="axis1OOnoMo-Ix2kMcnb-23" value="" style="rounded=0;whiteSpace=wrap;html=1;fillColor=#009900;" vertex="1" parent="1">
          <mxGeometry x="49" y="164" width="151" height="90" as="geometry" />
        </mxCell>
      </root>
    </mxGraphModel>
  </diagram>
</mxfile>
